<?xml version="1.0" standalone="no"?>
<!DOCTYPE svg PUBLIC "-//W3C//DTD SVG 20010904//EN"
 "http://www.w3.org/TR/2001/REC-SVG-20010904/DTD/svg10.dtd">
<svg version="1.0" xmlns="http://www.w3.org/2000/svg"
 width="1280.000000pt" height="1280.000000pt" viewBox="0 0 1280.000000 1280.000000"
 preserveAspectRatio="xMidYMid meet">
<metadata>
Created by potrace 1.16, written by Peter Selinger 2001-2019
</metadata>
<g transform="translate(0.000000,1280.000000) scale(0.100000,-0.100000)"
fill="#000000" stroke="none">
<path d="M5540 8334 c-14 -2 -59 -9 -100 -15 -131 -20 -330 -98 -463 -183 -92
-59 -229 -188 -299 -281 -120 -159 -192 -321 -239 -536 -18 -84 -22 -134 -22
-264 0 -168 17 -282 64 -425 140 -428 522 -755 975 -834 151 -27 396 -17 522
20 l22 6 0 -670 0 -670 289 -7 c159 -4 294 -4 300 0 8 5 11 524 10 1936 l-1
1929 -302 -2 -301 -3 0 -28 c1 -32 10 -32 -114 2 -72 20 -282 36 -341 25z
m282 -615 c29 -6 81 -24 116 -40 l62 -28 0 -595 0 -596 -38 -19 c-89 -45 -234
-66 -349 -50 -201 28 -368 127 -467 278 -83 127 -110 224 -109 391 0 109 4
135 28 208 38 112 86 188 175 278 80 81 182 140 290 168 67 18 220 20 292 5z"/>
<path d="M6830 8033 l0 -310 168 4 c199 6 269 -6 398 -66 164 -77 299 -243
350 -431 24 -88 24 -271 1 -360 -59 -217 -208 -375 -426 -449 -117 -40 -318
-45 -440 -11 -20 5 -39 10 -43 10 -5 0 -8 -144 -8 -320 l0 -320 208 0 c297 0
430 26 638 124 133 63 237 137 345 245 105 106 172 197 229 311 192 382 171
915 -50 1275 -190 310 -477 511 -830 581 -58 11 -158 18 -312 21 l-228 5 0
-309z"/>
</g>
</svg>
